<svg height="172pt" viewBox="0 0 336 172" width="448" xmlns="http://www.w3.org/2000/svg">
  <path
    d="M130.523 63.875c-5.128-.77-10.562-2.336-13.832-6.68-2.699-2.914-3.164-6.976-4.75-10.445-3.171 10.363 8.504 21.445 18.582 17.125"
    style="stroke:none;fill-rule:nonzero;fill:#ca6e6b;fill-opacity:1"/>
  <path
    d="M129.246 69.902c-11.976.38-22.574-9.914-23.129-21.78-2.3 5.105-.453 11.37 2.688 15.753 4.453 6.063 13.465 9.582 20.441 6.027M162.29 74.957q-1.055-.31-2.724-.309-5.653 0-10.41 5.907l1.317-4.973h-4.875l-7.184 27.145h4.875l3.645-13.778q1.14-4.301 4.062-6.687 2.731-2.227 6.488-2.227 1.413-.001 3.325.52ZM142.332 75.582h-7.41l-16.04 11.602 3.052-11.532-4.88.008-7.16 27.067h4.876l2.59-9.79 5.488-3.785 6.593 13.575h6.633l-8.437-16.942ZM105.863 75.582l-7.183 27.145h4.875l7.183-27.145ZM94.578 65.734 72.516 96.41l-5.68-30.676h-7.262l-9.789 36.993h5.168l7.95-30.047 5.636 30.047h4.613l21.75-30.668-8.117 30.668h5.168l9.79-36.993ZM232.504 64.445h-38.781l-2.196 10.692h38.786ZM196.785 102.61h13.785l5.39-22.356h-13.788ZM248.516 64.469h-12.532l-2.265 10.68h12.531ZM227.367 102.836h12.18l5.43-22.594H232.8ZM286.215 75.184h-14.367l-8.243 6.738 4.137-17.559h-13.125l-9.062 38.426h13.129l1.914-8.121h1.773l.082-.066 3.078 8.164h13.961l-6.36-16.891ZM186.625 88.984c-.477 2.946-1.684 5.383-3.629 7.309q-3.38 3.38-8.887 3.379-5.507.001-7.797-3.379-1.986-2.89-1.277-7.309c.477-2.941 1.684-5.379 3.63-7.304q3.379-3.38 8.886-3.38t7.797 3.38c1.324 1.925 1.75 4.363 1.277 7.304m-8.34-15.261q-7.958 0-13.156 4.523c-3.215 2.8-5.168 6.379-5.871 10.738-.703 4.364.101 7.942 2.414 10.743q3.74 4.523 11.7 4.523c5.308 0 9.71-1.508 13.214-4.523q4.763-4.2 5.816-10.743 1.052-6.537-2.359-10.738-3.796-4.524-11.758-4.523"
    style="stroke:none;fill-rule:nonzero;fill:#ca6e6b;fill-opacity:1"/>
</svg>
